<?xml version="1.0" standalone="no"?>
<!DOCTYPE svg PUBLIC "-//W3C//DTD SVG 20010904//EN"
 "http://www.w3.org/TR/2001/REC-SVG-20010904/DTD/svg10.dtd">
<svg version="1.0" xmlns="http://www.w3.org/2000/svg"
 width="512.000000pt" height="512.000000pt" viewBox="0 0 512.000000 512.000000"
 preserveAspectRatio="xMidYMid meet">

<g transform="translate(0.000000,512.000000) scale(0.100000,-0.100000)"
fill="#000000" stroke="none">
<path d="M862 5105 c-60 -18 -109 -59 -140 -116 l-27 -49 -54 0 c-79 0 -128
-19 -183 -70 -36 -33 -55 -60 -68 -100 -18 -54 -19 -54 -72 -65 -66 -14 -104
-34 -145 -77 -64 -66 -90 -175 -62 -256 10 -28 8 -33 -34 -74 -143 -144 -69
-390 130 -432 18 -4 35 -15 38 -26 10 -32 101 -108 144 -121 38 -11 41 -15 41
-48 0 -93 55 -228 126 -309 l44 -50 2 -298 3 -299 29 -10 c24 -8 31 -6 47 14
18 21 19 43 19 273 0 234 1 250 18 243 19 -9 130 -47 150 -51 9 -3 12 -41 12
-148 0 -153 7 -176 50 -176 43 0 50 23 50 176 l0 145 58 -3 57 -3 0 -475 0
-474 -32 -10 c-31 -8 -35 -6 -74 38 -65 74 -107 91 -216 91 -72 -1 -93 2 -93
13 0 27 -104 118 -154 135 -95 32 -174 20 -259 -40 -40 -28 -51 -32 -69 -22
-11 6 -43 9 -70 7 -53 -6 -97 -38 -117 -87 -8 -18 -11 -354 -9 -1138 3 -1105
3 -1112 24 -1139 11 -15 33 -37 48 -48 l27 -21 2459 0 2459 0 27 21 c15 11 37
33 48 48 21 27 21 38 24 749 l3 722 -22 18 c-19 15 -53 17 -385 17 l-364 0 0
99 c0 97 1 99 28 116 131 85 630 447 650 473 39 51 40 108 4 186 -81 173 -215
307 -393 390 -97 46 -174 66 -287 73 l-92 6 53 21 c118 48 197 124 256 246
l36 75 3 225 c2 127 8 230 13 236 7 9 20 10 42 3 83 -24 147 -3 218 71 36 38
67 60 89 65 45 10 125 91 139 141 23 82 7 154 -50 218 -36 41 -37 45 -27 78
34 111 -61 252 -177 266 -42 4 -46 7 -56 44 -13 49 -72 116 -124 139 -22 10
-63 19 -92 19 -43 0 -53 3 -58 20 -18 56 -96 114 -172 126 -45 7 -116 -10
-154 -37 -27 -19 -27 -19 -75 8 -98 55 -220 29 -289 -62 -30 -41 -30 -41 -96
-40 -56 0 -73 -4 -115 -30 -27 -17 -59 -46 -72 -65 -22 -33 -26 -35 -85 -36
-58 -1 -109 -17 -148 -46 -13 -9 -27 -7 -70 11 -62 27 -139 25 -192 -6 -32
-19 -32 -19 -67 3 -43 27 -66 49 -104 99 -76 99 -263 117 -353 33 l-22 -20
-57 28 c-78 38 -161 38 -232 -1 l-50 -27 -41 30 c-53 39 -124 55 -188 43 -26
-5 -48 -9 -49 -8 -50 116 -147 174 -270 164 l-64 -5 -22 41 c-69 125 -260 165
-368 78 l-37 -29 -31 24 c-65 51 -154 66 -240 39z m134 -95 c15 -6 45 -26 66
-45 53 -48 88 -47 143 4 57 52 115 63 179 32 45 -23 67 -47 81 -91 11 -37 45
-70 72 -70 12 0 42 5 66 12 63 17 114 3 159 -42 21 -21 38 -47 38 -57 0 -11
11 -32 25 -48 22 -23 31 -26 63 -21 144 23 155 21 210 -29 51 -46 79 -51 121
-23 65 43 76 48 121 48 45 0 62 -7 114 -44 42 -30 79 -25 125 17 22 20 52 39
66 43 39 10 108 -1 138 -21 l27 -17 -52 -32 c-29 -17 -63 -47 -76 -66 -21 -32
-27 -34 -80 -36 -114 -3 -200 -78 -218 -193 -9 -59 12 -124 59 -177 40 -45 41
-48 41 -124 1 -70 4 -83 31 -121 43 -62 100 -98 163 -106 28 -3 52 -9 52 -12
0 -17 -33 -50 -64 -65 -46 -22 -103 -20 -149 4 -56 30 -80 26 -137 -25 -57
-50 -83 -60 -142 -52 -51 7 -87 32 -115 83 -36 66 -49 74 -120 74 -51 0 -74 5
-109 26 -52 30 -78 27 -126 -15 -18 -15 -43 -33 -55 -40 -31 -16 -94 -14 -138
5 -45 18 -84 7 -110 -32 -41 -63 -135 -82 -205 -43 -41 23 -63 59 -80 127 -15
60 -38 72 -135 68 -44 -2 -87 -6 -95 -10 -8 -3 -26 -27 -40 -53 -32 -61 -79
-93 -136 -93 -56 0 -85 12 -124 50 -29 29 -37 31 -74 25 -120 -18 -150 -17
-186 7 -19 13 -46 43 -59 67 -24 44 -35 51 -110 71 -55 15 -95 54 -112 108
-19 64 -1 110 66 168 47 39 55 52 55 81 0 19 -7 48 -16 65 -33 64 1 159 69
195 18 9 58 17 91 18 68 2 91 21 101 83 8 52 35 102 68 126 25 18 41 21 116
19 80 -2 90 0 108 20 11 12 26 38 32 58 26 81 120 128 197 99z m3058 -200 c14
-5 34 -18 45 -29 49 -49 78 -51 124 -11 44 38 82 52 124 44 39 -7 93 -57 93
-85 0 -11 11 -31 25 -45 24 -24 31 -25 84 -19 45 5 66 3 90 -10 39 -20 71 -70
71 -112 0 -45 38 -73 101 -73 57 0 101 -32 119 -86 10 -28 9 -43 -6 -83 -22
-62 -14 -92 35 -124 50 -33 69 -82 52 -137 -14 -49 -40 -70 -103 -86 -29 -8
-57 -21 -63 -30 -39 -63 -55 -80 -88 -93 -34 -13 -44 -12 -86 1 -53 17 -81 11
-121 -27 -54 -50 -144 -37 -178 26 -35 67 -52 76 -130 77 -88 0 -116 -17 -126
-79 -4 -27 -17 -51 -36 -69 -56 -52 -122 -48 -178 12 -34 36 -41 39 -77 35
-22 -3 -52 -8 -67 -12 -38 -10 -72 0 -110 34 -47 41 -67 44 -113 19 -26 -14
-60 -22 -99 -23 -63 -2 -72 -8 -108 -74 -38 -70 -132 -78 -193 -16 -46 45 -66
50 -119 25 -54 -24 -77 -25 -122 -4 -34 16 -64 58 -64 89 0 9 -12 27 -26 42
-22 22 -31 25 -72 19 -59 -8 -108 16 -134 65 -22 41 -22 57 -2 109 21 52 11
77 -48 117 -78 52 -85 140 -15 199 29 25 36 26 98 20 58 -5 70 -3 93 15 14 11
26 27 26 36 0 8 15 30 34 49 29 29 41 34 83 34 40 0 55 -6 92 -35 24 -19 53
-35 65 -35 12 0 41 14 66 31 54 37 97 35 156 -5 51 -34 74 -33 124 9 45 37 83
44 146 26 45 -13 74 5 104 63 35 69 83 91 164 74 70 -15 82 -9 116 58 35 69
94 97 154 74z m-2963 -1045 c4 -16 7 -90 8 -162 l1 -133 -102 0 c-79 0 -112 5
-143 19 -50 23 -99 74 -120 124 l-15 37 57 0 c34 0 74 8 98 19 38 17 125 103
125 123 0 5 19 8 42 6 39 -3 44 -6 49 -33z m3199 0 c20 -33 21 -44 18 -232 -3
-225 -10 -248 -86 -291 -35 -20 -54 -22 -171 -22 l-131 0 0 203 0 203 68 0
c48 0 78 6 108 22 51 26 103 84 111 123 4 24 11 29 33 29 22 0 34 -9 50 -35z
m-760 -130 l0 -95 -117 0 c-99 0 -125 4 -163 21 l-45 21 55 12 c70 15 88 25
135 78 36 40 56 49 123 57 9 1 12 -24 12 -94z m-1747 -874 c-10 -20 -33 -46
-52 -58 -30 -21 -46 -23 -152 -23 l-119 0 0 465 0 464 42 40 c37 34 45 38 68
29 43 -17 131 -13 180 9 l45 19 3 -454 c2 -417 1 -458 -15 -491z m1078 769
c19 -35 58 -90 87 -121 l52 -57 0 -210 c0 -224 4 -242 50 -242 45 0 50 20 50
211 l0 179 51 -21 c29 -11 74 -25 100 -30 l49 -11 0 -348 c0 -304 2 -351 16
-364 20 -20 48 -20 68 0 14 13 16 61 16 365 l0 349 65 0 66 0 -5 -432 c-3
-238 -5 -451 -6 -473 0 -22 2 -103 6 -181 l6 -141 -73 -23 c-91 -29 -204 -104
-264 -174 -44 -52 -106 -159 -117 -204 -6 -21 -10 -22 -115 -22 l-109 0 -13
50 c-24 94 -116 183 -203 197 -38 6 -38 6 -38 54 0 128 -137 259 -270 259 -15
0 -47 -6 -73 -14 l-46 -14 -27 44 c-50 79 -134 124 -232 124 -74 0 -125 -17
-172 -57 l-40 -34 -42 25 c-60 35 -137 50 -193 38 l-45 -10 0 74 0 74 123 0
c143 0 217 16 296 63 135 81 211 230 211 414 l0 83 79 0 c44 0 86 3 95 6 14 5
16 -15 16 -189 0 -208 4 -227 50 -227 46 0 50 18 50 240 l0 208 35 22 c53 32
112 106 136 169 20 49 23 80 27 244 l4 187 37 0 c43 0 128 38 156 69 l20 23
16 -54 c9 -30 31 -83 50 -118z m-682 32 c19 -7 51 -12 72 -12 l39 0 0 -130 c0
-126 -1 -132 -25 -155 -21 -22 -33 -25 -100 -25 l-75 0 0 186 0 185 28 -19
c15 -10 42 -24 61 -30z m1906 -667 c-27 -7 -74 -23 -103 -34 -29 -12 -55 -21
-57 -21 -3 0 -5 16 -5 35 l0 35 108 -1 107 0 -50 -14z m138 -227 c13 -291 20
-618 14 -618 -3 0 -62 109 -133 243 -70 133 -147 279 -171 324 l-44 82 46 26
c70 41 193 83 276 94 3 1 9 -68 12 -151z m203 141 c76 -14 214 -67 221 -85 3
-8 -62 -162 -143 -344 -113 -251 -150 -325 -155 -308 -3 13 -9 145 -13 293 -3
149 -9 312 -13 363 l-6 92 25 0 c13 0 51 -5 84 -11z m415 -242 c67 -80 123
-188 115 -222 -4 -16 -82 -77 -258 -202 -299 -212 -283 -201 -270 -177 10 20
274 604 299 662 13 32 15 33 36 19 12 -7 47 -44 78 -80z m-848 -282 c96 -181
174 -331 172 -333 -2 -2 -125 72 -274 163 -207 128 -273 173 -277 191 -9 36
73 197 137 267 28 32 55 55 60 50 4 -4 86 -156 182 -338z m-3466 94 c21 -14
44 -42 63 -80 33 -65 55 -77 118 -63 109 23 181 -3 227 -82 36 -61 72 -74 140
-47 17 6 17 -5 12 -148 -5 -160 -24 -255 -68 -340 l-19 -39 -450 0 -450 0 0
364 c0 318 2 367 16 380 20 20 33 20 56 -1 33 -30 83 -22 126 19 72 71 153 84
229 37z m1499 -218 c41 -19 75 -57 88 -99 18 -57 78 -77 138 -46 44 23 134 15
176 -15 47 -33 72 -89 72 -161 0 -51 4 -65 25 -85 15 -16 36 -25 55 -25 46 0
92 -23 128 -64 17 -20 32 -41 32 -46 0 -4 3 -15 6 -24 6 -14 -35 -16 -417 -16
l-423 0 -69 41 c-89 53 -205 163 -263 250 -52 78 -114 208 -114 239 0 25 34
40 90 40 50 0 85 -14 127 -50 49 -43 86 -40 133 10 64 69 138 86 216 51z
m2224 -483 l0 -98 -166 0 c-153 0 -165 1 -160 18 3 9 17 64 31 122 30 117 28
154 -10 199 -58 69 -24 58 140 -42 l165 -101 0 -98z m-443 201 c34 -11 64 -26
66 -33 3 -7 -16 -98 -42 -202 l-48 -189 -31 100 c-61 197 -102 338 -102 347 0
14 80 2 157 -23z m-203 -194 c31 -104 59 -197 61 -205 5 -16 -40 30 -212 217
-95 102 -101 111 -85 125 45 40 163 83 173 64 4 -6 32 -96 63 -201z m-184
-105 c68 -74 135 -147 148 -162 22 -24 4 -19 -184 54 -115 44 -211 82 -213 84
-6 5 49 118 76 152 21 28 28 31 38 20 6 -7 67 -74 135 -148z m-371 -177 c1
-84 21 -180 49 -227 9 -16 34 -38 55 -49 l39 -20 291 47 291 47 58 -58 59 -58
-69 -6 c-89 -9 -149 -36 -215 -98 l-53 -50 -64 26 c-56 22 -74 25 -149 21
-100 -5 -152 -27 -218 -91 l-42 -41 -49 27 c-115 62 -262 51 -369 -29 -40 -30
-48 -30 -85 2 -59 48 -129 77 -203 82 -85 5 -132 -7 -208 -52 l-57 -35 -33 31
c-83 77 -186 115 -282 103 -47 -5 -143 -45 -187 -77 -15 -11 -23 -7 -55 24
-88 85 -239 122 -343 83 -25 -9 -52 -19 -62 -22 -11 -3 -37 16 -80 60 -48 48
-77 69 -122 86 -73 27 -173 29 -236 6 -64 -24 -90 -29 -90 -18 0 26 -86 105
-146 134 -54 27 -76 32 -137 32 -84 1 -140 -13 -191 -48 -20 -14 -39 -25 -41
-25 -3 0 -5 61 -5 135 l0 135 1474 0 1474 0 1 -77z m1205 55 c3 -13 10 -58 16
-102 5 -43 13 -89 16 -101 5 -19 1 -23 -30 -28 -59 -9 -123 -47 -176 -103
l-49 -52 -38 47 c-21 25 -62 72 -91 103 l-54 57 22 93 c13 51 25 96 27 101 2
4 83 7 178 7 173 0 175 0 179 -22z m766 -87 l0 -110 -47 21 c-36 16 -68 22
-129 22 -71 0 -89 -4 -145 -31 -35 -18 -81 -50 -103 -72 l-39 -39 -61 32 c-33
18 -70 35 -82 38 -18 5 -23 19 -38 111 -9 58 -16 113 -16 121 0 14 37 16 330
16 l330 0 0 -109z m-1642 -7 c111 -43 202 -82 202 -85 0 -9 -365 -63 -382 -57
-20 8 -38 70 -45 157 -5 62 -4 73 8 69 8 -3 105 -41 217 -84z m1551 -179 c86
-30 90 -37 90 -150 l0 -100 -70 -63 -69 -64 -48 30 c-85 55 -199 75 -294 53
l-38 -9 -35 109 c-19 60 -35 111 -35 114 0 3 20 -6 43 -20 28 -16 59 -25 85
-25 37 0 49 7 108 60 36 33 80 64 97 69 49 14 120 13 166 -4z m-4504 -29 c32
-15 69 -45 103 -84 67 -77 91 -83 187 -47 123 47 200 26 300 -81 72 -78 107
-89 182 -56 113 48 197 34 287 -47 84 -76 99 -76 246 5 32 17 59 24 100 24 69
0 121 -24 189 -84 66 -59 101 -61 182 -11 106 65 206 66 290 2 85 -65 92 -68
136 -64 27 3 59 17 90 39 91 67 177 74 272 25 54 -29 108 -34 144 -15 12 6 39
28 60 49 71 71 183 87 276 40 24 -12 60 -21 87 -21 43 0 50 4 94 49 89 92 178
116 291 77 52 -18 60 -24 92 -80 39 -67 77 -142 77 -151 0 -3 -24 -5 -53 -5
-61 0 -146 -23 -197 -52 -19 -12 -60 -45 -91 -75 l-55 -54 -56 26 c-156 71
-317 46 -443 -70 -27 -25 -51 -45 -53 -45 -1 0 -29 13 -61 30 -141 71 -312 53
-429 -44 -16 -15 -35 -26 -42 -26 -6 0 -30 16 -53 35 -73 63 -139 88 -238 93
-105 5 -168 -11 -246 -65 l-53 -35 -50 45 c-147 133 -363 151 -505 43 -40 -31
-69 -33 -87 -8 -27 39 -111 92 -174 112 -90 27 -158 26 -256 -7 l-81 -27 -26
35 c-59 78 -123 125 -210 154 -74 24 -206 17 -280 -15 l-54 -24 -31 40 c-45
57 -95 101 -144 126 l-44 23 4 57 c5 72 41 120 118 161 67 35 135 36 205 3z
m3889 -38 c2 -7 23 -73 46 -146 l41 -134 -39 -34 c-22 -19 -53 -54 -69 -79
-15 -25 -31 -45 -34 -45 -3 0 -21 32 -40 72 -19 39 -53 105 -76 146 l-43 75
22 36 c30 49 65 80 113 102 47 22 74 24 79 7z m-4173 -329 c16 -11 42 -40 58
-63 17 -24 42 -51 56 -60 37 -24 104 -22 156 4 65 33 150 37 222 10 56 -21 88
-47 167 -138 49 -56 91 -63 177 -28 136 56 245 32 360 -77 55 -52 109 -60 168
-23 92 58 138 76 201 76 88 0 146 -23 215 -87 49 -46 67 -56 104 -60 39 -5 53
0 121 40 44 27 96 49 121 53 89 13 184 -16 248 -77 73 -68 135 -70 220 -6 100
77 214 87 326 29 42 -22 76 -32 105 -32 38 0 51 6 99 50 74 67 126 92 206 98
55 4 75 0 130 -23 120 -51 156 -46 235 37 93 98 207 124 335 78 85 -31 125
-23 171 30 18 22 48 58 66 80 50 59 127 93 212 94 63 0 77 -4 154 -43 106 -55
147 -54 207 5 l39 38 0 -327 c0 -314 -1 -328 -20 -347 -20 -20 -33 -20 -2440
-20 -2407 0 -2420 0 -2440 20 -19 19 -20 33 -20 355 0 184 3 335 6 335 3 0 19
-9 35 -21z"/>
<path d="M806 4535 c-82 -31 -151 -108 -144 -161 6 -56 68 -57 103 -2 32 50
68 71 122 72 67 1 107 -19 147 -74 45 -62 73 -69 134 -34 86 51 170 35 227
-43 16 -23 43 -47 59 -54 26 -11 34 -10 82 16 69 38 125 38 189 1 59 -35 85
-29 139 29 62 65 130 78 209 38 25 -13 31 -12 53 2 29 19 31 55 6 78 -10 10
-40 24 -66 33 -85 29 -199 2 -264 -63 -25 -25 -26 -25 -61 -8 -58 28 -137 30
-199 7 l-53 -20 -43 42 c-72 73 -177 94 -275 57 l-49 -19 -34 35 c-18 19 -51
44 -73 55 -52 27 -156 33 -209 13z"/>
<path d="M1506 1355 c-82 -31 -151 -108 -144 -161 6 -56 68 -57 103 -2 33 52
69 72 128 72 66 0 110 -23 142 -75 39 -60 68 -67 133 -32 92 49 170 34 227
-44 16 -23 43 -47 59 -54 26 -11 34 -10 82 16 69 38 125 38 189 1 59 -35 85
-29 139 29 62 65 130 78 209 38 25 -13 31 -12 53 2 29 19 31 55 6 78 -10 10
-40 24 -66 33 -85 29 -199 2 -264 -63 -25 -25 -26 -25 -61 -8 -58 28 -137 30
-199 7 l-53 -20 -43 42 c-72 73 -177 94 -275 57 l-49 -19 -34 35 c-18 19 -51
44 -73 55 -52 27 -156 33 -209 13z"/>
</g>
</svg>
