<?xml version="1.0" standalone="no"?>
<!DOCTYPE svg PUBLIC "-//W3C//DTD SVG 20010904//EN"
 "http://www.w3.org/TR/2001/REC-SVG-20010904/DTD/svg10.dtd">
<svg version="1.0" xmlns="http://www.w3.org/2000/svg"
 width="512.000000pt" height="512.000000pt" viewBox="0 0 512.000000 512.000000"
 preserveAspectRatio="xMidYMid meet">

<g transform="translate(0.000000,512.000000) scale(0.100000,-0.100000)"
fill="#000000" stroke="none">
<path d="M3010 3783 c0 -5 16 -25 36 -44 91 -87 217 -282 278 -431 56 -135 79
-244 80 -378 1 -136 -11 -194 -66 -309 -32 -67 -57 -101 -121 -166 -139 -139
-244 -185 -572 -250 -281 -56 -487 -105 -483 -115 2 -4 167 -179 368 -389
l365 -381 1061 0 1061 0 33 23 c18 12 41 38 51 57 18 33 19 68 19 581 0 301
-3 561 -6 579 -9 43 -60 93 -114 113 -233 84 -349 131 -488 198 -226 108 -311
158 -587 344 -286 192 -519 341 -710 455 -77 45 -155 92 -172 102 -18 11 -33
16 -33 11z"/>
<path d="M2589 3694 c-26 -32 -226 -156 -360 -224 -463 -235 -1199 -430 -1979
-525 -156 -19 -196 -35 -228 -92 l-22 -41 2 -634 3 -635 145 80 c412 226 969
468 1435 623 352 116 580 176 972 253 342 68 435 116 505 259 27 55 34 80 36
148 11 236 -165 557 -412 753 -70 56 -77 59 -97 35z"/>
<path d="M1625 1936 c-405 -141 -680 -258 -1095 -464 l-295 -147 563 -3 c310
-1 812 -1 1116 0 l553 3 -322 334 c-177 184 -326 336 -331 337 -5 2 -90 -25
-189 -60z"/>
</g>
</svg>
