<?xml version="1.0" standalone="no"?>
<!DOCTYPE svg PUBLIC "-//W3C//DTD SVG 20010904//EN"
 "http://www.w3.org/TR/2001/REC-SVG-20010904/DTD/svg10.dtd">
<svg version="1.0" xmlns="http://www.w3.org/2000/svg"
 width="512.000000pt" height="512.000000pt" viewBox="0 0 512.000000 512.000000"
 preserveAspectRatio="xMidYMid meet">

<g transform="translate(0.000000,512.000000) scale(0.100000,-0.100000)"
fill="#000000" stroke="none">
<path d="M505 5095 c-21 -20 -25 -34 -25 -85 0 -38 -4 -60 -11 -60 -6 0 -38
-12 -71 -27 l-59 -26 -32 31 c-18 17 -43 35 -57 40 -37 14 -80 -5 -95 -41 -16
-38 -6 -70 37 -114 l31 -32 -26 -59 c-15 -33 -27 -65 -27 -71 0 -7 -22 -11
-60 -11 -51 0 -65 -4 -85 -25 -33 -32 -33 -78 0 -110 20 -21 34 -25 85 -25 38
0 60 -4 60 -11 0 -6 12 -38 26 -70 l27 -59 -42 -45 c-49 -53 -54 -93 -16 -130
37 -38 77 -33 128 15 l43 39 60 -24 c32 -14 65 -25 72 -25 8 0 12 -19 12 -60
0 -51 4 -65 25 -85 15 -16 36 -25 55 -25 19 0 40 9 55 25 21 20 25 34 25 85 0
38 4 60 11 60 6 0 38 12 70 26 l59 27 45 -42 c53 -49 93 -54 130 -16 38 37 33
77 -15 128 l-39 43 24 60 c14 32 25 65 25 72 0 8 19 12 60 12 51 0 65 4 85 25
33 32 33 78 0 110 -20 21 -34 25 -85 25 -38 0 -60 4 -60 11 0 6 -12 38 -26 70
l-27 59 42 45 c46 50 51 79 20 119 -32 40 -83 36 -130 -10 l-37 -36 -65 26
c-36 14 -70 26 -76 26 -7 0 -11 24 -11 60 0 51 -4 65 -25 85 -15 16 -36 25
-55 25 -19 0 -40 -9 -55 -25z m161 -323 c84 -43 128 -117 128 -212 0 -137 -96
-234 -234 -234 -138 0 -234 97 -234 234 0 112 62 195 174 231 38 13 123 3 166
-19z"/>
<path d="M4785 5107 c-56 -15 -105 -39 -150 -73 -22 -17 -34 -20 -47 -13 -10
5 -46 12 -81 16 -154 14 -291 -79 -335 -228 -12 -43 -24 -61 -49 -78 -18 -11
-48 -45 -67 -74 -109 -164 -50 -379 129 -467 l50 -25 418 -3 417 -3 25 25 25
25 0 404 c0 391 -1 405 -20 430 -44 56 -213 90 -315 64z m144 -153 l31 -6 0
-314 0 -314 -333 0 c-325 0 -334 1 -377 23 -48 24 -90 88 -90 137 1 43 37 109
71 128 71 39 86 58 91 117 10 123 121 188 228 133 49 -25 90 -89 90 -141 0
-68 87 -101 137 -51 23 23 25 31 20 83 -3 33 -16 79 -31 109 -14 28 -26 53
-26 55 0 4 60 31 90 41 22 7 63 7 99 0z"/>
<path d="M2826 4937 c-52 -52 -17 -137 56 -137 49 0 119 -39 145 -80 37 -60
60 -80 93 -80 33 0 56 20 93 80 26 41 96 80 145 80 73 0 108 85 56 137 -23 23
-31 25 -83 20 -64 -5 -151 -39 -177 -68 -22 -24 -46 -24 -68 0 -26 29 -113 63
-177 68 -52 5 -60 3 -83 -20z"/>
<path d="M2266 4457 c-52 -52 -17 -137 56 -137 49 0 119 -39 145 -80 37 -60
60 -80 93 -80 33 0 56 20 93 80 26 41 96 80 145 80 73 0 108 85 56 137 -23 23
-31 25 -83 20 -64 -5 -151 -39 -177 -68 -22 -24 -46 -24 -68 0 -26 29 -113 63
-177 68 -52 5 -60 3 -83 -20z"/>
<path d="M3689 3914 c-85 -26 -111 -61 -415 -564 -157 -261 -291 -480 -298
-487 -8 -9 -65 76 -235 358 -152 250 -239 383 -267 409 -61 56 -140 73 -228
49 -80 -22 -112 -69 -541 -776 -224 -370 -414 -673 -421 -673 -8 0 -14 8 -14
19 0 37 -70 159 -116 201 -25 23 -75 56 -112 73 -61 29 -76 32 -163 32 -94 0
-100 -1 -177 -41 l-80 -41 -33 44 c-35 47 -112 109 -168 138 -142 72 -340 87
-397 30 l-24 -24 0 -1306 0 -1306 25 -24 24 -25 2511 0 2511 0 24 25 25 24 0
941 c0 976 0 964 -41 1000 -10 8 -266 425 -569 925 -344 568 -566 924 -590
947 -23 23 -58 42 -91 52 -63 19 -80 19 -140 0z m104 -155 c15 -7 90 -121 225
-342 l201 -332 -52 -52 c-28 -29 -55 -53 -60 -53 -5 0 -78 41 -162 90 -105 62
-163 90 -185 90 -21 0 -76 -27 -175 -85 -79 -47 -151 -88 -160 -91 -12 -5 -33
9 -70 46 l-53 52 200 333 c216 359 228 373 291 344z m-1425 -246 c11 -10 91
-135 177 -277 l157 -259 -44 -37 c-24 -21 -45 -37 -48 -35 -3 1 -64 36 -136
78 -72 43 -141 77 -153 77 -12 0 -75 -31 -139 -69 -64 -37 -126 -73 -137 -79
-17 -8 -27 -3 -63 28 l-43 39 161 265 c89 146 169 270 178 276 27 15 68 12 90
-7z m1552 -618 c90 -52 173 -98 185 -101 32 -8 60 9 132 79 55 53 65 59 77 47
14 -15 556 -907 556 -915 0 -3 -51 -5 -113 -5 -222 0 -580 -37 -877 -92 -241
-43 -495 -109 -748 -193 l-222 -74 -128 35 c-70 19 -164 42 -209 51 -45 9 -81
19 -79 22 2 3 164 273 361 599 l358 593 71 -70 c99 -98 103 -98 251 -13 66 38
143 83 170 100 28 17 51 31 51 31 1 1 75 -42 164 -94z m-1450 -100 c155 -90
171 -93 238 -32 83 76 74 76 121 -2 l41 -70 -276 -458 -276 -458 -116 16 c-64
10 -180 22 -257 28 -291 24 -262 18 -269 56 -14 73 -75 172 -146 238 l-68 63
180 305 c99 167 186 314 194 327 l15 23 63 -56 c47 -41 71 -55 94 -55 20 0 78
28 169 80 76 44 144 78 151 75 7 -3 71 -39 142 -80z m-2164 -266 c95 -36 174
-110 215 -204 38 -86 105 -101 161 -36 46 54 102 89 154 97 140 21 249 -58
279 -202 8 -37 21 -74 29 -82 8 -8 43 -19 77 -24 121 -16 218 -83 265 -183
l24 -50 -218 -6 c-450 -14 -835 -78 -1119 -186 -10 -4 -13 90 -13 452 l0 457
47 -7 c26 -4 71 -16 99 -26z m4654 -1293 l0 -604 -77 24 c-43 14 -145 38 -226
55 l-149 30 -91 81 c-321 283 -758 546 -1142 688 -49 18 -94 36 -98 40 -10 9
303 102 491 145 391 91 784 139 1165 144 l127 1 0 -604z m-3000 419 c751 -74
1434 -307 1990 -678 109 -73 274 -197 268 -202 -2 -2 -50 1 -108 6 -58 5 -238
12 -400 15 l-295 7 -138 69 c-429 214 -833 313 -1327 325 -641 15 -1181 -98
-1615 -340 -49 -28 -109 -63 -132 -79 l-43 -29 0 360 c0 336 1 361 18 370 10
5 73 28 140 50 200 67 500 121 788 141 178 12 667 4 854 -15z m141 -626 c157
-12 375 -47 516 -83 149 -38 489 -157 466 -163 -4 -1 -73 -9 -153 -18 -649
-72 -1447 -306 -1917 -561 l-81 -44 -386 0 -386 0 0 195 0 194 53 40 c125 94
350 210 531 276 379 137 903 200 1357 164z m1954 -410 c319 -21 616 -69 808
-130 l97 -31 0 -38 0 -38 -92 29 c-411 129 -1238 179 -1877 114 -440 -45 -921
-156 -1359 -311 -147 -52 -157 -55 -240 -52 l-87 3 160 64 c713 283 1463 420
2215 405 124 -3 293 -9 375 -15z"/>
</g>
</svg>
